<?xml version="1.0" standalone="no"?>
<!DOCTYPE svg PUBLIC "-//W3C//DTD SVG 20010904//EN"
 "http://www.w3.org/TR/2001/REC-SVG-20010904/DTD/svg10.dtd">
<svg version="1.0" xmlns="http://www.w3.org/2000/svg"
 width="390.000000pt" height="390.000000pt" viewBox="0 0 390.000000 390.000000"
 preserveAspectRatio="xMidYMid meet">
<metadata>
Created by potrace 1.11, written by Peter Selinger 2001-2013
</metadata>
<g transform="translate(0.000000,390.000000) scale(0.100000,-0.100000)"
fill="#000000" stroke="none">
<path d="M0 1950 l0 -1950 818 0 c867 1 852 0 852 46 0 11 9 27 20 37 11 9 20
24 20 34 0 9 12 30 27 45 21 22 24 31 15 40 -17 17 -15 28 6 28 27 0 42 20 42
55 0 22 9 40 30 60 21 20 30 38 30 61 0 17 7 37 15 44 8 7 15 20 15 29 0 10
14 30 30 46 16 16 30 36 30 46 0 9 7 22 15 29 8 7 15 29 15 50 0 24 5 40 15
44 9 3 15 19 15 41 0 27 8 43 31 66 30 29 30 31 14 49 -16 18 -16 20 -1 26 9
3 16 17 16 30 0 14 7 27 15 30 20 8 19 30 -1 38 -22 8 -7 26 22 26 21 0 24 4
24 39 0 22 6 44 15 51 9 8 15 30 15 60 0 34 5 52 20 65 15 13 20 31 20 65 0
30 6 52 15 60 22 19 22 568 0 576 -10 4 -15 20 -15 45 0 26 -6 41 -17 48 -14
8 -19 28 -23 97 -5 84 -6 88 -30 94 -24 6 -25 10 -28 86 -3 75 -5 83 -32 109
-25 24 -30 37 -30 79 -1 44 -5 54 -30 76 -17 13 -30 33 -30 45 -1 11 -14 31
-30 45 -18 14 -30 34 -30 47 0 13 -7 26 -15 29 -8 4 -15 17 -15 30 0 14 -7 27
-15 30 -8 4 -15 16 -15 28 0 12 -13 33 -30 46 -16 14 -29 35 -30 48 0 12 -7
25 -15 28 -8 4 -15 16 -15 28 0 13 -25 46 -65 86 -36 35 -65 72 -65 80 0 9
-13 29 -30 45 -16 16 -30 36 -30 45 0 9 -20 36 -45 60 -25 24 -45 51 -45 60 0
9 -20 36 -45 60 -25 24 -45 51 -45 60 0 9 -20 36 -45 60 -25 24 -45 51 -45 60
0 21 -79 97 -105 102 -11 2 -21 12 -23 24 -2 11 -23 40 -47 64 -25 25 -45 51
-45 60 0 9 -15 30 -33 48 l-33 32 -512 0 -512 0 0 -1950z"/>
</g>
</svg>
